<?xml version="1.0" encoding="UTF-8"?>
<svg id="Layer_1" xmlns="http://www.w3.org/2000/svg" version="1.1" viewBox="0 0 939.2 1062.1">
  <!-- Generator: Adobe Illustrator 29.1.0, SVG Export Plug-In . SVG Version: 2.1.0 Build 142)  -->
  <defs>
    <style>
      .st0 {
        fill: #fff;
      }
    </style>
  </defs>
  <path class="st0" d="M253.5,833.6c.9,2,.6,4.5.8,6.7-2,0-4.1.3-6,0-19.8-4.7-39.9-6.2-60-5.8-29.8.6-59.6,2.1-89.4,3.5-18.2.8-36.3.8-54-4.6-39.1-11.9-49.7-43.7-38.3-76.5,3.4-9.9,10.1-18.6,15.4-27.8,1-1.6,2.2-3.1,3.4-4.5-.5-.7-1.1-1.4-1.7-2-17.5-16.3-25-36.3-23.5-60.1,2.2-35.8,15.9-66.1,40.6-92,48.6-51,105.9-88.4,172.6-111.2,1.5-.5,3.1-1,4.6-1.4l.9,1.4c-2.3,1.7-4.3,4-6.9,5-27.8,11.8-54.2,26.6-78.7,44.2-35.7,25.7-66.6,56.1-91.5,92.2-20.2,29.3-22.6,60.9-7.3,93.3,2,4.3,5.3,8,7.4,11.2,16.5-10.6,31.7-21.5,47.9-30.5,32.6-18.3,68.3-30.6,105.3-36.3,18.5-2.9,37.1-3.9,55.7-.6,3.1.6,6.1,1.6,8.9,3,4.5,2.3,5.8,6.2,4.2,11-2.1,6.2-13.6,13.1-22.1,12.1,2.5-2.3,4.3-3.8,6-5.6,1-1.2,2-2.4,3-3.7-1.3-.9-2.5-2.5-3.9-2.6-11.5-1.5-23.1-4-34.7-4-59,0-111.4,19-157.2,56.2-2.4,2-4.5,4.2-7,6.6,8.2,7.3,18.4,12.2,29.3,14,23.5,4.1,46.9,2.1,70-2.5,56.8-11.4,111.3-32.2,161.2-61.7,43.9-25.9,87.5-52.2,131-78.8,19.3-11.9,37.3-25.7,52.6-42.7,11.4-12.6,19-27.5,24.1-43.4,9.2-28.4-12.7-57.2-42.6-57.1-17.2-.1-33.8,6.2-46.5,17.7-49.6,44-92.2,95.2-126.4,152-1.5,2.5-2.5,7.6-7,5-4-2.4-.3-5.7.9-8.2,29.9-61.8,70.7-117.8,120.3-165.2,18-17.2,39.2-28.5,64.2-30.3,28.3-2.1,56.5,16.1,65.7,42.9,6.9,20.1,3.8,40.1-4.4,59.5-7.5,17.7-21.2,30-35.6,41.8-31.7,26-66.3,47.6-101.9,67.6-58.3,32.8-119.7,59.1-181.1,85.5-31.1,13.4-63,24.7-96.3,31.2-21.6,4.2-43.4,6-65.1,2.5-9.8-1.6-19.1-6.1-29.5-9.6-7.7,10.1-12.9,21.8-15.3,34.2-.9,5.2-1.4,10.6-1.3,15.9.1,18.9,9.5,33,27.7,38.3,11,3.2,22.4,4.9,33.9,4.8,32.6-.3,65.3-2.6,97.9-2.8,20.9-.1,41.9,1.8,62.8,3.2,6.6.5,13.4,2.2,16.5,9.3ZM321.5,124.4c-5.4,23.2-11.5,46.2-13.5,70.1-.5,6.3-1.1,12.5-1.7,19-56.8,2.7-113,13.3-166.9,31.5,9.5,7.3,18.9,9.3,29.4,6.2,42.9-12.5,87.1-20.1,131.7-22.6,1.6,0,3.2,0,4.6,0-.6,25.9-1,51.3-1.6,77.5,5.6-2.4,8-5.7,8.2-10.4.6-11.5,1.2-23,1.8-34.4.6-11,1-21.9,1.6-33.5,12.2,0,23.5,0,34.8,0,18.1,0,35.9,1.9,52.9,8.8,7,2.8,11.8,7.6,12.6,15.4.9,8-2.6,13.8-9.3,18-26.6,16.9-54.4,31.8-83.1,44.7-42.9,19-85.9,38-128.8,57-6.3,2.7-10.2,9.2-9.6,16,.7,7.1,5,12.5,12.4,13.7,16.9,2.9,33.9,5.2,50.8,7.9,1.9.3,3.6,1.7,5.3,2.6-1.1,1.5-1.9,3.4-3.3,4.4-8.5,5.7-15.5,13.3-20.6,22.1-9.5,16.9-1.3,33.6,17.9,37,4.9.8,9.7,2.2,14.3,4.2,18.2,8.3,27.3,25.6,21.3,42.6-4.1,11.6-9.3,22.8-15.5,33.4-9.4,16-22.9,28.4-38.5,38.6-1.4,1-2,3.3-2.9,5,1.8.4,3.8,1.6,5.2,1.2,6-1.9,12.2-3.6,17.6-6.8,18.2-10.4,33.1-25.7,43.3-44,11.6-20.7,15.9-42.3,5.2-64.5-8.2-17.1-23.7-24.9-41.5-28.9-2.2-.5-4-2.3-6-3.4,1.2-1.8,2.1-4.1,3.7-5.4,9.1-7,16.4-15.4,23-24.8,8.5-12-.3-25.8-12.4-27.3-14.2-1.7-28.3-4.6-42.4-6.9-4.7-.8-7.5-4.2-5.5-7.3,1.5-1.9,3.5-3.4,5.8-4.1,58.9-21.1,115.8-46.8,171.1-75.9,12.8-6.5,24.5-15,34.7-25.1,14.2-14.4,11-37.5-6.8-47.1-13.9-7.5-28.8-12.8-44.5-14-17.7-1.3-35.6-1.2-53.4-1.8-2.1,0-4.1,0-6.8,0,1.2-10.2,1.7-19.8,3.7-29,8.8-39.7,19.7-78.8,32.7-117.4,2.8-8.3,5.8-16.6,8.6-25,6.5-19.6-5.3-38.1-25.7-40.5-36.5-4.1-70.6,3.3-102.2,22-15.4,9.1-16.6,31.3-2.5,41.9,1.2.9,2.9,1.1,4.4,1.6.4-1.4,1.3-3,1.2-4.4-.5-10.2,3.4-18,12.2-23.5,20.2-12.5,42.1-18,65.8-15.5,15.9,1.7,25,13.2,22,28.8-4.7,24.2-9.5,48.4-15.1,72.4ZM939.2,843.8c-.5,2-1.9,3.6-3.8,4.4-2.8.9-5.9.9-8.9.9-126.2,0-252.3,0-378.5,0-93.8,0-187.7,0-281.5,0-3,0-5.9-.5-8.7-1.4-2-.6-3.2-2.7-2.5-4.7.4-1.2,1.3-2.2,2.5-2.5,2.6-.9,5.4-1.4,8.2-1.5,22.7-.1,45.3,0,68,0h5.3c1.7-8.8,3.2-17.1,5-26.3-3.2,1.2-5.9,2.4-8.8,3.4-8,2.8-16,5.6-24,8.3-1.7.6-3.6.9-5.4,1.1-7.5.8-9-.8-7.8-8.3-6.2,2.7-12.3,5.6-18.6,7.8-4.2,1.5-8.7,2.3-13.1,2.4-6.7,0-9.5-4.3-7.8-10.8.4-1.6,1.1-3.2,2-4.6,11.7-18.3,27.9-30.6,49.1-36,2.8-.6,5.6-.8,8.4-.5,6.1.4,9,5,5.6,10-2.6,3.8-6.8,6.6-10.5,9.7-1,.4-2.2.3-3.1-.4-.6-.9-.7-2.1-.3-3.1,1.3-2.3,3.2-4.3,4.6-6.5,2-3,.8-5.1-2.5-5-3.5,0-6.9.8-10.1,2.1-11.2,4.9-21,12.5-28.5,22.2-.2.2-.4.5-.6.8-2,3.3-4.3,6.9-1.7,10.6s6.9,4,10.5,2.5c7.5-3.1,14.5-7.1,21.8-10.6,1.5-.6,3.1-1.2,4.7-1.6,0,1.6.3,3.3-.2,4.7-2,5.8,0,9,5.9,7.5,9.3-2.2,18.4-5.8,27.6-8.6,3.6-1.1,5.1-3.3,6.4-6.8,21.4-57.9,54.9-107.4,102.9-146.6,11.1-9.1,23.3-16.7,37.9-19.4.7-.1,1.3-.3,2-.4,14-2.1,18.2,1,20.2,15.4,1.7-1,3.2-1.9,4.6-2.9,8.9-5.8,18.1-10.8,28.7-12.3,17-2.5,23.4,2.1,19.8,21.4-1.2,6.3-4.8,12.5-8.3,18-15.7,23.9-36.2,43.4-57.4,62.3-26.5,23.8-54.6,46-84,66.2-2.1,1.5-3.6,3.7-4.3,6.2-1.9,8.9-3.3,17.9-5,27.9h521c3.2-.1,6.3.2,9.4,1,1.6.5,3.8,2.8,3.7,3.9ZM498.6,680.3c-13,18.9-28.8,35.5-46.2,50.3-10.5,9-18.8,20.3-24.2,33-5.4,12.4-10.6,24.9-15.9,37.4l1.6.8c1.6-1.1,3.3-2.1,4.9-3.3,25.6-17.9,49.3-38.1,71.9-59.5,19.1-18.1,37.7-36.8,52.1-59,4.7-7.2,8.3-15.1,10.7-23.4,2.5-8.5-2.2-13-11-12.5-12,.7-21.9,6.5-31.3,13.1-.8.6-1.2,1.9-1.7,2.9-3.6,6.7-6.6,13.9-10.9,20.1ZM453.4,723.6c13.1-16,26.3-32,39.4-47.9h0s-1.7-1.6-1.7-1.6c-14.7,14.7-27.9,30.9-39.2,48.3l1.5,1.2ZM385.1,742.1c-11.2,19.1-20.3,39.5-27.1,60.6,2.9-1.9,4.6-2.9,6.1-4.1,16.1-12.7,32.2-25.3,48.3-38,10.8-8.5,20.2-18.2,26.9-30.4,2.5-4.6,5.9-8.8,9.1-13.1,14-19.1,29.4-37.1,47.3-52.8,3.6-3.2,5-10.7,2.9-15.3-2.3-5.2-6.8-5.3-11.4-4.8-3,.3-5.9.9-8.8,1.7-11.4,3.4-21,10.1-30,17.6-26.3,22-46.2,49.2-63.3,78.6ZM394.3,838.4c3.1-28.8,14.7-54.3,27.4-79.3h0c-21.3,15.7-42.3,31.2-63.3,46.7-.8.6-1.8,1.3-1.9,2.1-2,10-3.9,20-5.9,30.5h43.7ZM566.8,776c2.8-.6,5.6-.7,8.4-.5,6,.4,9,5.2,5.6,10-2.6,3.8-6.9,6.6-10.6,9.6-.6.5-2.5.2-3.1-.5-.6-.9-.7-2.1-.2-3.1,1.2-2.1,3-4,4.4-6.1,2.2-3.4,1.2-5.6-2.8-5.5-3.2,0-6.3.7-9.2,1.9-11.2,4.8-21.1,12.4-28.6,22.1-.9,1.2-1.8,2.4-2.4,3.8-3.1,6.4-.2,11.4,6.9,10.9,9.6-.7,17.7-5.3,25.3-11,1.4-1.1,3.5-1.3,5.7-2,0,1.8,0,2.2,0,2.5-.4,3-.9,5.9-1.4,8.9,3.2.3,6.6,1.4,9.5.7,22.3-5.8,43.4-15.3,62.6-28.1.6-.5,1.3-1,2.1-1.3,2.2-.6,4.5-1,6.8-1.5-.4,2.4-.1,5.4-1.4,7.2-3.6,5-7.9,9.4-11.6,14.3-1.2,1.6-1.2,4.1-1.7,6.1,2-.4,4.3-.2,5.9-1.2,12.8-8,25.6-16.3,38.3-24.4,2.7-1.7,5.4-3.2,8.3-4.6,1-.5,3.3-.6,3.6,0,.6,1.3.7,2.8.3,4.1-.8,2-2.3,3.7-3.3,5.6-2.8,5.1-6,10-8.2,15.4-2.6,6.7.5,10.8,7.3,9,10.6-2.7,20.9-6.7,31.2-10.4,1.3-.5,2.3-2.3,3.2-3.7,7.7-10.2,16.5-19.3,27.7-25.6,3.1-1.7,7.1-1.8,10.8-2.4.5,0,1.1,1,1.8,1.6-15,5.1-24.9,15.9-33.4,28.1-2,2.9-3.3,6.1-4,9.5-.9,4.5,1.7,7,6.2,6.8,8.7-.4,15.1-5.6,21.4-10.9.8-.7.4-3,.1-4.5-1.7-7.8-.3-15.1,4.7-21.2,2.5-2.9,5.7-4.9,9.4-6,6.1-1.7,9.2,1.7,7.2,7.7-1.6,4.8-4.3,9.3-6.9,13.8-1.6,2.9-4,5.4-6.8,9,13.4,6.9,24.7-.2,37.4-3.4-.7,1.6-.9,3-1.7,3.6-10.2,7.4-31.1,9.3-39.6,3.8-5.4,3.8-10.3,8.1-16,11-5.3,2.7-11.1,4.5-17,5.3-7.7,1-10.7-2.8-9.4-10.6.3-2,1.1-4,1.8-6.8-7.1,2.7-13.4,5.5-20,7.6-5.8,1.9-11.8,3.8-17.9,4.5-8.8,1-12.5-3.8-9.6-12.3,1.8-5.5,4.5-10.7,7.3-17.2-2.3.9-4.6,2-6.8,3.2-11.7,7.3-23.4,14.7-35.2,22-2.5,1.6-5.2,3-8.1,3.9-1.6.5-4.4.2-5.3-.9s-1.1-4.1-.2-5.4c2.8-4.1,5.8-8.1,9-11.9,1.8-2.3,3.9-4.4,5.1-7.6l-5.6,2.4c-17,7.2-34,14.4-51,21.5-2.8,1.1-5.7,1.8-8.7,2.2-8.4,1.5-10.4-.3-9.6-7.8-7,2.8-14.2,5.9-21.5,8.6-2.7.9-5.5,1.5-8.3,1.5-7.8.2-10.6-3-9.6-10.7,0-.6,0-1.3.1-2.1-7.9,2.8-15.5,5.6-23.2,8.2-3,1-6.1,1.8-9.2,2.3-12.8,2.4-16.8-8.9-14-17,.4-1.2,1-2.4,1.8-4.1-7.8,3.5-15.2,6.8-22.6,10-.4-.6-.8-1.2-1.2-1.8,1-1,2.1-1.9,3.3-2.7,6.3-3.4,13-6.2,18.8-10.2,3.9-2.7,7-6.8,9.9-10.8,1.8-2.4,3.2-3.8,6-2.3s2.3,3.8,1,6.4c-2.5,5-5.4,10-6.8,15.4-1.9,6.9,1.9,11.2,9.1,10.5,4.9-.4,9.7-2.1,14.5-3.3,1.6-.4,3.1-1.2,4.7-1.7,6.8-2,12.9-6.1,17.4-11.5,10.9-12.9,24.7-22.3,41.6-26ZM755.4,805.7c3-4.3,6.1-8.4,8.8-12.9,1.4-2.4,2.2-5.7-1.3-7.3-3.3-1.5-5.8,0-7.5,3-2.9,5.3-3.1,10.8,0,17.2ZM826.9,988.3c.2.6-1.7,2.2-2.9,2.5-2.1.3-4.3.4-6.5.3-13.5,0-27,0-40.5-.2-3.6,0-6,1.7-8.3,4.5-13.7,16.7-27.5,33.5-41.7,49.8-4.8,5.5-10.8,9.9-16.5,14.4-3.4,2.7-7.5,3.9-11.7,1.4s-3.9-6.7-3.5-10.7c.8-8.7,4.6-16.3,9.7-23.2,14.5-19.3,34.2-31.4,57.2-36.9,11.8-2.8,15.9-11.1,21-20-3.9,1.5-7.7,3.2-11.7,4.3-4.4,1.2-8.7,1.3-10.7-4-5.6,2-10.7,4-15.9,5.8-2.2.8-4.5,1.3-6.8,1.6-6.5.8-8.8-2.1-6.7-8.2,1.1-3.1,2.5-6,3.8-9l-.9-1c-7.6,4.8-15.2,9.6-22.8,14.3-1.9,1.3-4,2.4-6.2,3.2-1.2.4-3.3.2-3.9-.5s-.3-3,.4-4c2.6-3.6,5.5-7,9-11.3-8.8,3.9-16.5,7.5-24.4,10.8-4,1.7-8.1,3.2-12.2,4.4-3.8,1.1-8.4,3.1-11.1-.9-1.9-2.9-1.7-7.1-2.4-10.6-3.9,2.3-8.8,5.2-13.8,8-2.1,1.1-4.2,2-6.5,2.7-6.1,2-7.8,1.1-10.1-5.4-7.1,1.4-14.2,5.4-20,1.5-7.2,3.3-13.2,7-19.8,8.8-6.9,1.8-9.8-2.3-6.6-8.9,4.8-10,12.7-18.2,22.4-23.5,1.7-.9,3.8-.9,6-.6-8,3.9-14.2,9.8-19.2,16.8-2.2,3-5.7,6.8-2.4,10.2s7.5.4,10.9-1.5,6.5-3.8,5.1-9.2c-1.4-5.7,2.4-12,7-13.6,1.7-.6,4.2-.7,5.5.2.9.6,1.1,3.6.4,4.9-2,4.3-4.7,8.4-7.4,13.1,1.4.5,3,1.7,4.6,1.6,6.9-.4,13.9-.4,18.4-7.5,2.2-3.4,5.7-6,8.7-9l1.4,1c-.2,1-.6,1.9-1.1,2.7-1.3,1.7-3.4,3.1-4.1,5-.9,2.5-.8,5.5-1.1,8.2,2.5,0,5.5,1,7.3-.1,6.9-4.3,13.4-9.2,20.1-13.8,1.3-.7,2.8-1.3,4.2-1.8,0,1.7-.2,3.3-.4,5-.3,1.5-1.5,2.8-1.5,4.2,0,2.8,0,6.3,1.4,8.3,1,1.3,4.9,1.1,7.2.5,12.9-3.6,25.1-9.2,36.2-16.5,2.1-1.2,4.3-2.3,6.5-3.3-.3,8.5-8.7,11.3-10.4,19.3,2.1-.8,4.1-1.7,6.1-2.7,7.6-4.8,15.1-9.8,22.7-14.5,2.1-1.1,4.2-2.2,6.4-3.1l1.1,1.2c-.8,1.7-1.5,3.3-2.4,5-1.8,3.5-3.9,7-5.4,10.6-1.3,3.2.4,5.8,3.8,5,6.1-1.4,12.1-3.6,18-5.6.6-.2,1.1-1.2,1.4-1.9,8.2-15.5,22.8-20.5,38.5-23.4,1.9-.3,5.2,1.6,6.2,3.4.6,1-1.8,3.9-2.9,6,0,.1-.2.2-.4.3l-7.5,2.3c1.1-1.9,2.3-3.7,3.3-5.7.4-1,.8-2,1.1-3-2.2,0-4-.4-5.6,0-8.8,2.3-16.6,7.4-22.1,14.6-1.6,2-1.4,5.3-2.1,8.1,2.7,0,5.7,1.1,7.9.1,5.7-2.5,11.1-5.8,16.6-8.8l1.2.8-19.6,25h4.8c13-.4,25.9-.8,38.9-1.2,1.3-.2,2.7,0,3.9.5,1.3.8,2.3,2,2.8,3.4ZM611.9,965c1.8-2.5,3.5-5.1,5-7.8.5-1.1-.5-2.8-.8-4.3-1.5.6-4,.8-4.4,1.8-1.2,3-1.5,6.3-2.2,9.5h0s2.3.7,2.3.7ZM767.9,992.5h0c-2,.2-3.2.2-4.3.5-14.5,3.3-28.1,9.8-39.7,19-7.9,6.3-14.8,13.6-18.3,23.2-1.8,5.3-2.8,10.9-2.9,16.5-.2,4.6,3.2,6.2,7.1,3.7,3.3-2,6.3-4.3,9-7.1,14.9-16.4,29.5-32.9,44.2-49.4,1.6-1.8,3-3.9,4.9-6.4ZM621.1,916.3c-18.5,16.4-38.2,31.5-57.7,46.8-3.1,2.5-5.3,4.8-5.7,8.8-.5,4.8-1.1,9.6-1.5,14.4-.2,2.9,0,6.2-4.1,5.9s-3.7-4-3.1-6.5c2.8-10.9,4.8-22.2,9.1-32.5,12.1-29.4,30.9-55.5,54.8-76.4,8.7-7.6,18-14.3,29.9-16.1,8.3-1.2,11.6,1.5,12.8,9.7-2.1,4.8-3.4,10.3-6.5,14.2-8.8,11-17.5,22.4-28,31.7ZM631.1,900.1c6.1-7.4,11.3-15.6,15.5-24.2,3.7-7.6-.9-12.6-8.9-10.1-6.7,2.1-12.9,5.2-18.6,9.3-18.1,13.5-31.2,31.4-42.1,50.8-6.4,11.6-11.7,23.7-17.4,35.6l1.7.9c.5-.2.9-.4,1.3-.6,25.2-17.9,48.6-37.9,68.5-61.7ZM818,973.2c-1.7.1-4.6-2-5-3.7s1.3-4.2,2.7-5.7c1.3-1.4,3.6-1.7,5.2-2.8,1.6-1.1,3-2.4,4.4-3.7-1.8-.7-3.7-1.5-5.4-2s-3.5-.8-5.3-1.1c0-.6-.1-1.1-.1-1.7l18.9-8c0,.6,0,1.2,0,1.8.9,1.2,1.8,2.4,2.8,3.5,2.6-1.6,5.1-3.6,7.6-5.5-1.4-1-3-3-4.3-2.8-4.3.5-8.5,1.6-12.5,3.1-6,2.4-11.9,5.2-17.6,8.3-1.3.7-2.2,2.8-2.5,4.4-.1.5,2.1,1.7,3.3,2.2,1.6.5,3.2,1,4.8,1.3-1.7,1.4-2.7,2.1-3.5,2.9-3.3,3-7.7,6-5.1,11.2,2.5,5,7.7,3.6,12.1,3.1.2,0,.3,0,.5-.1,9.3-2.9,18.7-5.9,28-8.9.9-.5,1.8-1.1,2.5-1.8-4.9.6-9.3,2.5-13.9,3.5-5.8,1.3-11.7,2.2-17.6,2.5Z"/>
</svg>