<?xml version="1.0" encoding="UTF-8"?>
<svg id="Layer_1" xmlns="http://www.w3.org/2000/svg" version="1.1" viewBox="0 0 792 215">
  <!-- Generator: Adobe Illustrator 29.1.0, SVG Export Plug-In . SVG Version: 2.1.0 Build 142)  -->
  <defs>
    <style>
      .st0 {
        fill: #fff;
      }
    </style>
  </defs>
  <path class="st0" d="M251.6,198.8c-3.1-7.1-9.9-8.8-16.5-9.3-20.9-1.4-41.9-3.3-62.8-3.2-32.6.2-65.3,2.5-97.9,2.8-11.5.1-22.9-1.6-33.9-4.8-18.2-5.3-27.6-19.4-27.7-38.3-.1-5.3.4-10.7,1.3-15.9,1.7-8.8,4.9-17.3,9.3-25.1,1.8-3.1,9.1-14.7,14.2-20.5,6.1-6.9,14.5-14.2,15.8-15.3C99.2,32,151.6,13,210.6,13s23.2,2.5,34.7,4c1.4,0,2.6,1.7,3.9,2.6-1,1.3-2,2.5-3,3.7-1.7,1.8-3.5,3.3-6,5.6,8.5,1,20-5.9,22.1-12.1,1.6-4.8.3-8.7-4.2-11-2.8-1.4-5.8-2.4-8.9-3-18.6-3.3-37.2-2.3-55.7.6-37,5.7-72.6,18-105.3,36.2-8.5,4.8-27.2,15.3-41.8,27.1-5.8,4.8-15.7,13.1-23.2,23-9.5,12.5-16.4,26.8-18.3,32.3-11.5,32.8-.9,64.5,38.2,76.6,17.7,5.4,35.8,5.4,54,4.6,29.8-1.4,59.6-2.9,89.4-3.5,20.1-.4,40.2,1.1,60,5.8,1.9.3,4,0,6,0-.2-2.2.1-4.7-.8-6.7h0ZM542.5,2c-10.6,1.5-19.8,6.5-28.7,12.3-1.4,1-2.9,1.9-4.6,2.9-2-14.4-6.2-17.5-20.2-15.4-.7.1-1.3.3-2,.4-14.6,2.7-26.8,10.3-37.9,19.4-48,39.2-81.5,88.7-102.9,146.6-1.3,3.5-2.8,5.7-6.4,6.8-9.2,2.8-18.3,6.4-27.6,8.6-5.9,1.5-7.9-1.7-5.9-7.5.5-1.4.2-3.1.2-4.7-1.6.4-3.2,1-4.7,1.6-7.3,3.5-14.3,7.5-21.8,10.6-3.6,1.5-7.9,1.2-10.5-2.5-2.6-3.7-.3-7.3,1.7-10.6.2-.3.4-.6.6-.8,7.5-9.7,17.3-17.3,28.5-22.2,3.2-1.3,6.6-2.1,10.1-2.1,3.3-.1,4.5,2,2.5,5-1.4,2.2-3.3,4.2-4.6,6.5-.4,1-.3,2.2.3,3.1.9.7,2.1.8,3.1.4,3.7-3.1,7.9-5.9,10.5-9.7,3.4-5,.5-9.6-5.6-10-2.8-.3-5.6-.1-8.4.5-21.2,5.4-37.4,17.7-49.1,36-.9,1.4-1.6,3-2,4.6-1.7,6.5,1.1,10.8,7.8,10.8s8.9-.9,13.1-2.4c6.3-2.2,12.4-5.1,18.6-7.8-1.2,7.5.3,9.1,7.8,8.3,1.8-.2,3.7-.5,5.4-1.1,8-2.7,16-5.5,24-8.3,2.9-1,5.6-2.2,8.8-3.4-1.5,7.7-4.3,23.8-6.2,34,0,0,0,0,0,0-.2,1.2.7,2.4,2,2.4h6.6c1,0,1.8-.7,2-1.6,2.2-11.4,6-30.6,7.8-39.6,0-.8,1.1-1.5,1.9-2.1,21-15.5,42-31,63.3-46.7-12.1,23.8-24.5,59.5-28.3,87.7-.2,1.2.8,2.3,2,2.3h5.5c1,0,1.8-.7,2-1.7,2-11,5.6-28.8,7.2-36.5.7-2.5,2.2-4.7,4.3-6.2,29.4-20.2,57.5-42.4,84-66.2,21.2-18.9,41.7-38.4,57.4-62.3,3.5-5.5,7.1-11.7,8.3-18,3.6-19.3-2.8-23.9-19.8-21.4ZM410.6,125.8c-16.1,12.7-32.2,25.3-48.3,38-1.5,1.2-3.2,2.2-6.1,4.1,6.8-21.1,15.9-41.5,27.1-60.6,17.1-29.4,37-56.6,63.3-78.6,9-7.5,18.6-14.2,30-17.6,2.9-.8,5.8-1.4,8.8-1.7,4.6-.5,9.1-.4,11.4,4.8,2.1,4.6.7,12.1-2.9,15.3-17.9,15.7-33.3,33.7-47.3,52.8-3.2,4.3-6.6,8.5-9.1,13.1-6.7,12.2-16.1,21.9-26.9,30.4ZM491,40.9h0c-13.1,15.9-26.3,31.9-39.4,47.9l-1.5-1.2c11.3-17.4,24.5-33.6,39.2-48.3l1.7,1.6ZM551.7,21.8c-2.4,8.3-6,16.2-10.7,23.4-14.4,22.2-33,40.9-52.1,59-22.6,21.4-46.3,41.6-71.9,59.5h0c-1.6,1.2-3.3,2.2-4.9,3.3l-1.6-.8c5.3-12.5,10.5-25,15.9-37.4,5.4-12.7,13.7-24,24.2-33,17.4-14.8,33.2-31.4,46.2-50.3,4.3-6.3,7.3-13.5,10.9-20.2.5-1,.9-2.3,1.7-2.9,9.4-6.6,19.3-12.4,31.3-13.1,8.8-.5,13.5,4,11,12.5ZM754.1,175.3c2.8-3.6,5.2-6.1,6.8-9,2.6-4.5,5.3-9,6.9-13.8,2-6-1.1-9.4-7.2-7.7-3.7,1.1-6.9,3.1-9.4,6-5,6.1-6.4,13.4-4.7,21.2.3,1.5.7,3.8,0,4.5-6.3,5.3-12.7,10.5-21.4,10.9-4.5.2-7.1-2.3-6.2-6.8.7-3.4,2-6.6,4-9.5,8.5-12.2,18.4-23,33.4-28.1-.7-.6-1.3-1.6-1.8-1.6-3.7.6-7.7.7-10.8,2.4-11.2,6.3-20,15.4-27.7,25.6-.9,1.4-1.9,3.2-3.2,3.7-10.3,3.7-20.6,7.7-31.2,10.4-6.8,1.8-9.9-2.3-7.3-9,2.2-5.4,5.4-10.3,8.2-15.4,1-1.9,2.5-3.6,3.3-5.6.4-1.3.3-2.8-.3-4.1-.3-.6-2.6-.5-3.6,0-2.9,1.4-5.6,2.9-8.3,4.6-12.7,8.1-25.5,16.4-38.3,24.4-1.6,1-3.9.8-5.9,1.2.5-2,.5-4.5,1.7-6.1,3.7-4.9,8-9.3,11.6-14.3,1.3-1.8,1-4.8,1.4-7.2-2.3.5-4.6.9-6.8,1.5-.8.3-1.5.8-2.1,1.3-19.2,12.8-40.3,22.3-62.6,28.1-2.9.7-6.3-.4-9.5-.7.5-3,1-5.9,1.4-8.9v-2.5c-2.2.7-4.3.9-5.7,2-7.6,5.7-15.7,10.3-25.3,11-7.1.5-10-4.5-6.9-10.9.6-1.4,1.5-2.6,2.4-3.8,7.5-9.7,17.4-17.3,28.6-22.1,2.9-1.2,6-1.9,9.2-1.9s5,2.1,2.8,5.5c-1.4,2.1-3.2,4-4.4,6.1-.5,1-.4,2.2.2,3.1.6.7,2.5,1,3.1.5,3.7-3,8-5.8,10.6-9.6,3.4-4.8.4-9.6-5.6-10-2.8-.2-5.6-.1-8.4.5h-.2c-16.9,3.6-30.7,13-41.6,25.9-4.5,5.4-10.6,9.5-17.4,11.5-1.6.5-3.1,1.3-4.7,1.7-4.8,1.2-9.6,2.9-14.5,3.3-7.2.7-11-3.6-9.1-10.5,1.4-5.4,4.3-10.4,6.8-15.4,1.3-2.6,1.8-4.9-1-6.4s-4.2,0-6,2.3c-2.9,4-6,8.1-9.9,10.8-5.8,4-12.5,6.8-18.8,10.2-1.2.8-2.3,1.7-3.3,2.7.4.6.8,1.2,1.2,1.8,7.4-3.2,14.8-6.5,22.6-10-.8,1.7-1.4,2.9-1.8,4.1-2.8,8.1,1.2,19.4,14,17,3.1-.5,6.2-1.3,9.2-2.3,7.7-2.6,15.3-5.4,23.2-8.2v2.1c-1,7.7,1.8,10.9,9.6,10.7,2.8,0,5.6-.6,8.3-1.5,7.3-2.7,14.5-5.8,21.5-8.6-.8,7.5,1.2,9.3,9.6,7.8,3-.4,5.9-1.1,8.7-2.2,17-7.1,34-14.3,51-21.5l5.6-2.4c-1.2,3.2-3.3,5.3-5.1,7.6-3.2,3.8-6.2,7.8-9,11.9-.9,1.3-.7,4.3.2,5.4.9,1.1,3.7,1.4,5.3.9,2.9-.9,5.6-2.3,8.1-3.9,11.8-7.3,23.5-14.7,35.2-22,2.2-1.2,4.5-2.3,6.8-3.2-2.8,6.5-5.5,11.7-7.3,17.2-2.9,8.5.8,13.3,9.6,12.3,6.1-.7,12.1-2.6,17.9-4.5,6.6-2.1,12.9-4.9,20-7.6-.7,2.8-1.5,4.8-1.8,6.8-1.3,7.8,1.7,11.6,9.4,10.6,5.9-.8,11.7-2.6,17-5.3,5.7-2.9,10.6-7.2,16-11,8.5,5.5,29.4,3.6,39.6-3.8.8-.6,1-2,1.7-3.6-12.7,3.2-24,10.3-37.4,3.4h-.2ZM753.6,153.7c1.7-3,4.2-4.5,7.5-3,3.5,1.6,2.7,4.9,1.3,7.3-2.7,4.5-5.8,8.6-8.8,12.9-3.1-6.4-2.9-11.9,0-17.2Z"/>
</svg>